<svg width="16" height="15" viewBox="0 0 16 17" fill="none" xmlns="http://www.w3.org/2000/svg">
<path d="M4.95825 4.5158V7.52546H7.21606V4.5158H8.72127V7.52546H10.9791V4.5158H12.4843V7.52546L13.2369 7.52621C13.8128 7.52618 14.3669 7.74622 14.786 8.14131C15.205 8.53639 15.4572 9.07666 15.4909 9.65157L15.4947 9.78403V10.5366C15.4947 11.2998 15.211 11.9967 14.7429 12.5273L14.7421 15.8049C14.7421 16.0045 14.6628 16.1959 14.5217 16.337C14.3805 16.4782 14.1891 16.5575 13.9895 16.5575H1.94784C1.74823 16.5575 1.5568 16.4782 1.41566 16.337C1.27452 16.1959 1.19523 16.0045 1.19523 15.8049V12.5235C0.790833 12.0627 0.535754 11.4901 0.4637 10.8813L0.447143 10.6909L0.442627 10.5366V9.78403C0.442595 9.20813 0.662632 8.65398 1.05772 8.23497C1.4528 7.81596 1.99307 7.56376 2.56798 7.52998L2.70044 7.52621L3.45304 7.52546V4.5158H4.95825ZM5.71236 12.5243L5.67172 12.5717C5.17839 13.1103 4.50581 13.4509 3.77967 13.5297L3.60658 13.5433L3.45304 13.547C3.1934 13.547 2.94127 13.5139 2.70044 13.4522V15.0523H13.2369V13.4522C12.7442 13.5789 12.2275 13.5788 11.7348 13.4521C11.2422 13.3254 10.7896 13.0761 10.4191 12.7275L10.3063 12.6146L10.2265 12.5265L10.146 12.6153C9.65793 13.1277 9.00464 13.4513 8.30132 13.529L8.11919 13.544L7.96867 13.547C7.18104 13.5482 6.4247 13.2389 5.86364 12.6861L5.75074 12.5679L5.71236 12.5243ZM13.2369 9.03142H2.70044C2.5161 9.03145 2.33818 9.09912 2.20043 9.22162C2.06268 9.34411 1.97467 9.5129 1.9531 9.69597L1.94784 9.78403V10.5148L1.95009 10.6254C1.97274 11.0087 2.14096 11.3688 2.42034 11.632C2.69972 11.8953 3.06915 12.0419 3.45304 12.0418C3.81351 12.0425 4.16221 11.9137 4.4357 11.6788C4.70919 11.444 4.88928 11.1188 4.9432 10.7624L4.95449 10.6473L4.95825 10.5148C4.98535 9.57556 6.33326 9.54169 6.45518 10.414L6.46271 10.5148L6.46572 10.6254C6.48677 11.0077 6.6527 11.3676 6.92974 11.6319C7.20679 11.8961 7.57411 12.0449 7.95696 12.0478C8.33981 12.0508 8.7094 11.9078 8.99051 11.6479C9.27163 11.3879 9.44313 11.0307 9.47011 10.6488L9.47915 10.4365C9.57247 9.56652 10.8805 9.56652 10.9738 10.4365L10.9828 10.6488C11.0098 11.0286 11.1796 11.3841 11.4582 11.6437C11.7369 11.9033 12.1035 12.0476 12.4843 12.0476C12.8651 12.0476 13.2317 11.9033 13.5103 11.6437C13.789 11.3841 13.9588 11.0286 13.9857 10.6488L13.9895 10.5366V9.78403C13.9895 9.59969 13.9218 9.42177 13.7993 9.28402C13.6768 9.14627 13.508 9.05826 13.325 9.03669L13.2369 9.03142ZM4.20565 0.752777C5.19909 1.4083 5.45723 2.32421 5.29617 2.9263C5.21873 3.21552 5.02956 3.46214 4.77028 3.61189C4.51101 3.76164 4.20286 3.80226 3.91364 3.72481C3.62441 3.64736 3.3778 3.4582 3.22805 3.19892C3.0783 2.93965 3.03768 2.6315 3.11512 2.34228C3.34015 1.50689 4.20565 1.88168 4.20565 0.752777ZM7.96867 0.752777C8.96211 1.4083 9.22025 2.32421 9.05919 2.9263C8.98175 3.21552 8.79258 3.46214 8.5333 3.61189C8.27403 3.76164 7.96588 3.80226 7.67666 3.72481C7.38743 3.64736 7.14082 3.4582 6.99107 3.19892C6.84132 2.93965 6.8007 2.6315 6.87815 2.34228C7.10317 1.50689 7.96867 1.88168 7.96867 0.752777ZM11.7317 0.752777C12.7251 1.4083 12.9833 2.32421 12.8222 2.9263C12.7448 3.21552 12.5556 3.46214 12.2963 3.61189C12.037 3.76164 11.7289 3.80226 11.4397 3.72481C11.1505 3.64736 10.9038 3.4582 10.7541 3.19892C10.6043 2.93965 10.5637 2.6315 10.6412 2.34228C10.8662 1.50689 11.7317 1.88168 11.7317 0.752777Z" fill="#949494"/>
</svg>
