<svg width="19" height="18" viewBox="0 0 19 18" fill="none" xmlns="http://www.w3.org/2000/svg">
<path d="M9.86677 7.31271L15.3333 9.29991V17.4065C15.3333 17.5639 15.2719 17.715 15.1625 17.8263C15.0531 17.9377 14.9047 18.0002 14.75 18.0002H12.4167C12.262 18.0002 12.1136 17.9377 12.0042 17.8263C11.8948 17.715 11.8333 17.5639 11.8333 17.4065V13.2502H6V17.4065C6 17.5639 5.93854 17.715 5.82915 17.8263C5.71975 17.9377 5.57138 18.0002 5.41667 18.0002H3.08333C2.92862 18.0002 2.78025 17.9377 2.67086 17.8263C2.56146 17.715 2.5 17.5639 2.5 17.4065V9.46839C1.14521 8.97669 0.166668 7.67118 0.166668 6.12521C0.166668 5.81026 0.289584 5.50822 0.508377 5.28552C0.727169 5.06282 1.02392 4.93771 1.33333 4.93771C1.64275 4.93771 1.9395 5.06282 2.15829 5.28552C2.37708 5.50822 2.5 5.81026 2.5 6.12521C2.50058 6.43997 2.62368 6.74167 2.84235 6.96425C3.06102 7.18682 3.35743 7.31212 3.66667 7.31271H9.86677ZM18.8333 3.15646V4.34396C18.8333 4.97385 18.5875 5.57794 18.1499 6.02333C17.7123 6.46873 17.1188 6.71896 16.5 6.71896H15.3333V8.03931L10.6667 6.34304V0.781456C10.6667 0.252647 11.2945 -0.0123135 11.6623 0.361749L12.6569 1.37521H14.6122C15.0099 1.37521 15.4781 1.66911 15.6556 2.03167L15.9167 2.56271H18.25C18.4047 2.56271 18.5531 2.62526 18.6625 2.73661C18.7719 2.84796 18.8333 2.99898 18.8333 3.15646ZM14.75 3.15646C14.75 3.03902 14.7158 2.92423 14.6517 2.82659C14.5876 2.72894 14.4965 2.65284 14.3899 2.6079C14.2833 2.56296 14.166 2.5512 14.0529 2.57411C13.9397 2.59702 13.8358 2.65357 13.7542 2.73661C13.6726 2.81965 13.6171 2.92545 13.5945 3.04062C13.572 3.1558 13.5836 3.27518 13.6277 3.38367C13.6719 3.49217 13.7467 3.5849 13.8426 3.65014C13.9385 3.71538 14.0513 3.75021 14.1667 3.75021C14.3214 3.75021 14.4698 3.68765 14.5791 3.5763C14.6885 3.46495 14.75 3.31393 14.75 3.15646Z" fill="#949494"/>
</svg>
