<svg width="20" height="20" viewBox="0 0 20 20" fill="none" xmlns="http://www.w3.org/2000/svg">
<path d="M7.71278 6.68889L6.6907 7.71111L16.756 17.7778H17.7781V16.7556L7.71278 6.68889ZM3.71332 0C3.99106 0 4.27991 0.111111 4.491 0.322222L6.52405 2.35556L2.35795 6.52222L0.324894 4.48889C0.221905 4.3861 0.140196 4.264 0.084446 4.12958C0.0286961 3.99517 0 3.85108 0 3.70556C0 3.56004 0.0286961 3.41594 0.084446 3.28153C0.140196 3.14711 0.221905 3.02502 0.324894 2.92222L2.92454 0.322222C3.14673 0.0999999 3.42447 0 3.71332 0ZM7.71278 3.54444L20 15.8333V20H15.8339L3.54668 7.71111L7.71278 3.54444Z" fill="white"/>
</svg>
