<svg width="11" height="15" viewBox="0 0 11 15" fill="none" xmlns="http://www.w3.org/2000/svg">
<path d="M10.1953 5.56641C10.1953 2.75566 7.9084 0.46875 5.09766 0.46875C2.28691 0.46875 0 2.75566 0 5.56641C0 8.15889 1.94531 10.3058 4.45312 10.6233V11.543H3.39844C3.2275 11.543 3.06356 11.6109 2.94269 11.7317C2.82181 11.8526 2.75391 12.0166 2.75391 12.1875C2.75391 12.3584 2.82181 12.5224 2.94269 12.6433C3.06356 12.7641 3.2275 12.832 3.39844 12.832H4.45312V13.8867C4.45312 14.0577 4.52103 14.2216 4.6419 14.3425C4.76278 14.4633 4.92672 14.5312 5.09766 14.5312C5.2686 14.5312 5.43254 14.4633 5.55341 14.3425C5.67428 14.2216 5.74219 14.0577 5.74219 13.8867V12.832H6.79688C6.96782 12.832 7.13175 12.7641 7.25263 12.6433C7.3735 12.5224 7.44141 12.3584 7.44141 12.1875C7.44141 12.0166 7.3735 11.8526 7.25263 11.7317C7.13175 11.6109 6.96782 11.543 6.79688 11.543H5.74219V10.6233C8.25 10.3058 10.1953 8.15889 10.1953 5.56641ZM1.28906 5.56641C1.28906 3.46641 2.99766 1.75781 5.09766 1.75781C7.19766 1.75781 8.90625 3.46641 8.90625 5.56641C8.90625 7.66641 7.19766 9.375 5.09766 9.375C2.99766 9.375 1.28906 7.66641 1.28906 5.56641Z" fill="#828BA3"/>
</svg>
