<svg width="16" height="12" viewBox="0 0 16 12" fill="none" xmlns="http://www.w3.org/2000/svg">
<path d="M13.867 0.133423H2.13366C1.32699 0.133423 0.674326 0.793423 0.674326 1.60009L0.666992 10.4001C0.666992 11.2068 1.32699 11.8668 2.13366 11.8668H13.867C14.6737 11.8668 15.3337 11.2068 15.3337 10.4001V1.60009C15.3337 0.793423 14.6737 0.133423 13.867 0.133423ZM13.5737 3.25009L8.38899 6.49142C8.15433 6.63809 7.84633 6.63809 7.61166 6.49142L2.42699 3.25009C2.35346 3.20881 2.28907 3.15304 2.23771 3.08616C2.18635 3.01927 2.1491 2.94266 2.12821 2.86096C2.10732 2.77926 2.10323 2.69418 2.11617 2.61085C2.12912 2.52752 2.15884 2.44769 2.20353 2.37618C2.24823 2.30467 2.30696 2.24297 2.37619 2.19482C2.44542 2.14667 2.5237 2.11306 2.60629 2.09604C2.68888 2.07902 2.77407 2.07893 2.85669 2.09578C2.93932 2.11264 3.01767 2.14608 3.08699 2.19409L8.00033 5.26676L12.9137 2.19409C12.983 2.14608 13.0613 2.11264 13.144 2.09578C13.2266 2.07893 13.3118 2.07902 13.3944 2.09604C13.477 2.11306 13.5552 2.14667 13.6245 2.19482C13.6937 2.24297 13.7524 2.30467 13.7971 2.37618C13.8418 2.44769 13.8715 2.52752 13.8845 2.61085C13.8974 2.69418 13.8933 2.77926 13.8724 2.86096C13.8515 2.94266 13.8143 3.01927 13.7629 3.08616C13.7116 3.15304 13.6472 3.20881 13.5737 3.25009Z" fill="#828BA3"/>
</svg>
