<svg width="15" height="16" viewBox="0 0 15 16" fill="none" xmlns="http://www.w3.org/2000/svg">
<path d="M14.1427 0.571533H10.9284C10.72 0.571533 10.5202 0.654314 10.3728 0.801664C10.2255 0.949014 10.1427 1.14886 10.1427 1.35725C10.1427 1.56563 10.2255 1.76548 10.3728 1.91283C10.5202 2.06018 10.72 2.14296 10.9284 2.14296H12.2459L10.0891 4.29975C7.65375 2.41189 4.12482 2.58546 1.89125 4.8201C-0.531607 7.24332 -0.531607 11.1855 1.89268 13.6072C3.05895 14.77 4.63865 15.423 6.28554 15.423C7.93242 15.423 9.51212 14.77 10.6784 13.6072C12.913 11.3722 13.0866 7.84475 11.1988 5.40939L13.357 3.25403V4.57153C13.357 4.77992 13.4397 4.97977 13.5871 5.12712C13.7344 5.27447 13.9343 5.35725 14.1427 5.35725C14.3511 5.35725 14.5509 5.27447 14.6983 5.12712C14.8456 4.97977 14.9284 4.77992 14.9284 4.57153V1.35725C14.9284 1.25407 14.9081 1.15189 14.8686 1.05657C14.8291 0.96124 14.7712 0.874624 14.6983 0.801664C14.6253 0.728703 14.5387 0.670828 14.4434 0.631342C14.348 0.591856 14.2459 0.571533 14.1427 0.571533ZM9.56839 12.4972C8.6971 13.3667 7.51645 13.8551 6.28554 13.8551C5.05462 13.8551 3.87397 13.3667 3.00268 12.4972C1.19232 10.6872 1.19232 7.74153 3.00268 5.93153C4.81304 4.12153 7.75839 4.12118 9.56839 5.93153C11.3784 7.74189 11.3788 10.6872 9.56839 12.4972Z" fill="#949494"/>
</svg>
