<svg width="16" height="16" viewBox="0 0 16 16" fill="none" xmlns="http://www.w3.org/2000/svg">
<path d="M6.28333 5.51667L5.51667 6.28333L13.0667 13.8333H13.8333V13.0667L6.28333 5.51667ZM3.28333 0.5C3.49167 0.5 3.70833 0.583333 3.86667 0.741667L5.39167 2.26667L2.26667 5.39167L0.741667 3.86667C0.664413 3.78957 0.603124 3.698 0.561306 3.59719C0.519488 3.49638 0.497963 3.38831 0.497963 3.27917C0.497963 3.17003 0.519488 3.06196 0.561306 2.96115C0.603124 2.86034 0.664413 2.76876 0.741667 2.69167L2.69167 0.741667C2.85833 0.575 3.06667 0.5 3.28333 0.5ZM6.28333 3.15833L15.5 12.375V15.5H12.375L3.15833 6.28333L6.28333 3.15833Z" fill="url(#paint0_linear)"/>
<defs>
<linearGradient id="paint0_linear" x1="15.5" y1="7.55883" x2="0.497963" y2="7.55883" gradientUnits="userSpaceOnUse">
<stop stop-color="#FF7C30"/>
<stop offset="1" stop-color="#FF9C47"/>
</linearGradient>
</defs>
</svg>
