<svg width="14" height="14" viewBox="0 0 14 14" fill="none" xmlns="http://www.w3.org/2000/svg">
<path d="M13.8055 11.6416L11.8316 13.5996C11.5403 13.8984 11.1541 13.9997 10.7779 14.0001C9.11461 13.9503 7.54239 13.1332 6.25149 12.2943C4.13257 10.7528 2.18837 8.84135 0.968149 6.53149C0.500152 5.56289 -0.0489746 4.32703 0.00349043 3.24589C0.00816877 2.83919 0.117765 2.44004 0.404194 2.17789L2.37803 0.205045C2.7879 -0.14359 3.18428 -0.0230496 3.44657 0.383044L5.03453 3.39423C5.20167 3.75097 5.10579 4.13319 4.85643 4.38809L4.12922 5.11493C4.08433 5.17642 4.05574 5.24642 4.05502 5.32261C4.33388 6.40203 5.17867 7.39693 5.92497 8.08161C6.67125 8.7663 7.47342 9.69392 8.5147 9.91352C8.6434 9.94942 8.80105 9.96203 8.89314 9.87643L9.73909 9.0161C10.0307 8.79507 10.4518 8.68704 10.7631 8.86777H10.7779L13.6422 10.5588C14.0627 10.8223 14.1065 11.3317 13.8055 11.6416Z" fill="#828BA3"/>
</svg>
