<svg width="18" height="21" viewBox="0 0 18 21" fill="none" xmlns="http://www.w3.org/2000/svg">
<path d="M6.14848 8.07939C6.31917 8.07939 6.48287 8.1472 6.60356 8.2679C6.72426 8.38859 6.79207 8.55229 6.79207 8.72298V16.4461C6.79207 16.6168 6.72426 16.7805 6.60356 16.9012C6.48287 17.0219 6.31917 17.0897 6.14848 17.0897C5.97778 17.0897 5.81408 17.0219 5.69339 16.9012C5.57269 16.7805 5.50488 16.6168 5.50488 16.4461V8.72298C5.50488 8.55229 5.57269 8.38859 5.69339 8.2679C5.81408 8.1472 5.97778 8.07939 6.14848 8.07939ZM9.36644 8.07939C9.53713 8.07939 9.70083 8.1472 9.82153 8.2679C9.94222 8.38859 10.01 8.55229 10.01 8.72298V16.4461C10.01 16.6168 9.94222 16.7805 9.82153 16.9012C9.70083 17.0219 9.53713 17.0897 9.36644 17.0897C9.19574 17.0897 9.03204 17.0219 8.91135 16.9012C8.79065 16.7805 8.72284 16.6168 8.72284 16.4461V8.72298C8.72284 8.55229 8.79065 8.38859 8.91135 8.2679C9.03204 8.1472 9.19574 8.07939 9.36644 8.07939ZM13.228 8.72298C13.228 8.55229 13.1602 8.38859 13.0395 8.2679C12.9188 8.1472 12.7551 8.07939 12.5844 8.07939C12.4137 8.07939 12.25 8.1472 12.1293 8.2679C12.0086 8.38859 11.9408 8.55229 11.9408 8.72298V16.4461C11.9408 16.6168 12.0086 16.7805 12.1293 16.9012C12.25 17.0219 12.4137 17.0897 12.5844 17.0897C12.7551 17.0897 12.9188 17.0219 13.0395 16.9012C13.1602 16.7805 13.228 16.6168 13.228 16.4461V8.72298Z" fill="white" stroke="white" stroke-width="0.5"/>
<path fill-rule="evenodd" clip-rule="evenodd" d="M17.7334 4.86155C17.7334 5.20294 17.5978 5.53034 17.3564 5.77173C17.115 6.01312 16.7876 6.14874 16.4462 6.14874H15.8026V17.7334C15.8026 18.4162 15.5314 19.071 15.0486 19.5537C14.5658 20.0365 13.911 20.3078 13.2283 20.3078H5.50515C4.82238 20.3078 4.16758 20.0365 3.68479 19.5537C3.202 19.071 2.93078 18.4162 2.93078 17.7334V6.14874H2.28718C1.9458 6.14874 1.6184 6.01312 1.37701 5.77173C1.13561 5.53034 1 5.20294 1 4.86155V3.57437C1 3.23299 1.13561 2.90559 1.37701 2.66419C1.6184 2.4228 1.9458 2.28718 2.28718 2.28718H6.79233C6.79233 1.9458 6.92794 1.6184 7.16934 1.37701C7.41073 1.13561 7.73813 1 8.07951 1H10.6539C10.9953 1 11.3227 1.13561 11.5641 1.37701C11.8055 1.6184 11.9411 1.9458 11.9411 2.28718H16.4462C16.7876 2.28718 17.115 2.4228 17.3564 2.66419C17.5978 2.90559 17.7334 3.23299 17.7334 3.57437V4.86155ZM4.36985 6.14874L4.21796 6.22468V17.7334C4.21796 18.0748 4.35358 18.4022 4.59497 18.6436C4.83636 18.885 5.16376 19.0206 5.50515 19.0206H13.2283C13.5696 19.0206 13.897 18.885 14.1384 18.6436C14.3798 18.4022 14.5154 18.0748 14.5154 17.7334V6.22468L14.3635 6.14874H4.36985ZM2.28718 4.86155V3.57437H16.4462V4.86155H2.28718Z" fill="white" stroke="white" stroke-width="0.5"/>
</svg>
