<svg width="15" height="15" viewBox="0 0 15 15" fill="none" xmlns="http://www.w3.org/2000/svg">
<path d="M10.6874 0.328541L0.329187 10.6883C0.11871 10.9 0.000695936 11.1865 0.000977064 11.4851C0.00125819 11.7837 0.119812 12.0699 0.330687 12.2813L2.71944 14.6715C2.93088 14.8822 3.21713 15.0007 3.51563 15.0009C3.81412 15.0012 4.1006 14.8833 4.31244 14.673L14.6722 4.31329C14.8825 4.10142 15.0006 3.81498 15.0006 3.51642C15.0006 3.21786 14.8825 2.93141 14.6722 2.71954L12.2827 0.328541C12.0706 0.11809 11.7839 0 11.4851 0C11.1863 0 10.8996 0.11809 10.6874 0.328541ZM2.94744 11.484L2.37819 12.0533L0.956187 10.6305L1.52544 10.0613L2.94744 11.484ZM5.22444 11.484L4.65519 12.0533L2.09394 9.49204L2.66319 8.92204L5.22444 11.484ZM5.22444 9.20704L4.65519 9.77629L3.23169 8.35429L3.80169 7.78429L5.22444 9.20704ZM6.36294 8.06854L5.79369 8.63779L4.37169 7.21579L4.94094 6.64579L6.36294 8.06854ZM8.63919 8.06854L8.06994 8.63779L5.50944 6.07729L6.07869 5.50804L8.63919 8.06854ZM8.63919 5.79229L8.06994 6.36154L6.64794 4.93954L7.21719 4.37029L8.63919 5.79229ZM9.77769 4.65454L9.20844 5.22379L7.78569 3.80104L8.35494 3.23179L9.77769 4.65454ZM12.0547 4.65454L11.4847 5.22379L8.92419 2.66254L9.49344 2.09254L12.0547 4.65454ZM12.0539 2.37829L11.4847 2.94754L10.0627 1.52404L10.6319 0.955541L12.0539 2.37829Z" fill="#828BA3"/>
</svg>
