<?xml version="1.0" encoding="utf-8"?>
<!-- Generator: Adobe Illustrator 20.1.0, SVG Export Plug-In . SVG Version: 6.00 Build 0)  -->
<svg version="1.1" id="Layer_1" xmlns="http://www.w3.org/2000/svg" xmlns:xlink="http://www.w3.org/1999/xlink" x="0px" y="0px"
	 viewBox="0 0 24 24" style="enable-background:new 0 0 24 24;" xml:space="preserve">
<style type="text/css">
	.st0{fill:#C0CBD7;}
</style>
<path stroke="none" stroke-width="1" fill-rule="evenodd" d="M10,0C4.5,0,0,4.5,0,10s4.5,10,10,10s10-4.5,10-10S15.5,0,10,0z M10,18c-4.4,0-8-3.6-8-8s3.6-8,8-8s8,3.6,8,8
	S14.4,18,10,18z M23.7,22.3c0.4,0.4,0.4,1,0,1.4C23.5,23.9,23.3,24,23,24s-0.5-0.1-0.7-0.3l-4-4c-0.4-0.4-0.4-1,0-1.4
	c0.4-0.4,1-0.4,1.4,0L23.7,22.3z"/>
</svg>
