<svg width="14" height="14" viewBox="0 0 14 14" fill="none" xmlns="http://www.w3.org/2000/svg">
<path d="M11.7643 2.23967C11.1398 1.60899 10.3968 1.1079 9.57805 0.765221C8.7593 0.422537 7.88091 0.245003 6.99334 0.242818C6.10577 0.240634 5.22652 0.413842 4.40609 0.752491C3.58566 1.09114 2.84023 1.58856 2.21263 2.21617C1.58502 2.84377 1.0876 3.5892 0.748951 4.40963C0.410302 5.23006 0.237094 6.10931 0.239278 6.99688C0.241463 7.88445 0.418997 8.76284 0.761681 9.58159C1.10436 10.4003 1.60545 11.1433 2.23613 11.7678C2.86065 12.3985 3.60362 12.8996 4.42237 13.2423C5.24112 13.585 6.11951 13.7625 7.00708 13.7647C7.89465 13.7669 8.7739 13.5937 9.59433 13.255C10.4148 12.9164 11.1602 12.4189 11.7878 11.7913C12.4154 11.1637 12.9128 10.4183 13.2515 9.59787C13.5901 8.77744 13.7633 7.89819 13.7611 7.01062C13.759 6.12305 13.5814 5.24466 13.2387 4.42591C12.8961 3.60716 12.395 2.86419 11.7643 2.23967ZM1.22521 7.00375C1.22499 6.49263 1.29276 5.98376 1.42673 5.49052C1.64751 5.96575 1.96814 6.37632 2.18621 6.86389C2.46804 7.49071 3.2248 7.31686 3.55897 7.86609C3.85554 8.35365 3.53882 8.97026 3.7608 9.48038C3.92201 9.85064 4.3022 9.93155 4.56448 10.2023C4.83248 10.4754 4.82676 10.8495 4.86767 11.2057C4.91383 11.6241 4.9887 12.0388 5.09175 12.447C5.09175 12.45 5.09175 12.4533 5.09416 12.4563C2.84341 11.6659 1.22521 9.52039 1.22521 7.00375ZM7.00021 12.7787C6.67769 12.7786 6.35575 12.7517 6.03771 12.6981C6.04102 12.6166 6.04252 12.5405 6.05064 12.4876C6.12373 12.0094 6.36315 11.5416 6.68619 11.1837C7.00532 10.8306 7.44266 10.5918 7.71216 10.1911C7.97624 9.80011 8.05535 9.27375 7.94647 8.81686C7.78615 8.14191 6.86907 7.91662 6.37458 7.55057C6.09035 7.34002 5.83739 7.01458 5.46412 6.98811C5.29207 6.97608 5.148 7.01307 4.97746 6.96916C4.82105 6.92855 4.69833 6.84433 4.5317 6.86629C4.22039 6.9072 4.02398 7.23986 3.68951 7.19475C3.37219 7.15234 3.04524 6.78087 2.97305 6.47858C2.88041 6.08998 3.18781 5.96395 3.51716 5.92936C3.65462 5.91492 3.80892 5.89928 3.94096 5.94981C4.11481 6.01418 4.19693 6.18442 4.35303 6.27044C4.64569 6.43106 4.70495 6.17449 4.66013 5.91462C4.59306 5.52541 4.51485 5.3669 4.86196 5.0989C5.10258 4.91422 5.30831 4.78067 5.26981 4.44891C5.24695 4.25401 5.14018 4.16588 5.23974 3.97187C5.31523 3.82419 5.52247 3.69094 5.65752 3.60282C6.00613 3.37542 7.1509 3.39227 6.68319 2.75582C6.54573 2.56903 6.29217 2.23516 6.05155 2.18944C5.75076 2.1326 5.61722 2.46827 5.40757 2.61625C5.19101 2.76935 4.76931 2.9432 4.55245 2.70649C4.26069 2.38796 4.74585 2.28359 4.85323 2.06101C4.90286 1.95724 4.85323 1.81317 4.76962 1.67751C4.8781 1.6318 4.98838 1.58939 5.10047 1.55028C5.17072 1.60217 5.25406 1.63342 5.3411 1.64052C5.54232 1.65375 5.73211 1.54487 5.90777 1.68203C6.10268 1.83242 6.24314 2.02251 6.50181 2.06943C6.75206 2.11485 7.01705 1.96897 7.07901 1.71271C7.11661 1.5569 7.07901 1.39237 7.04292 1.23146C8.16785 1.23793 9.26608 1.57482 10.2011 2.20027C10.141 2.17741 10.0691 2.18012 9.98035 2.22133C9.79778 2.30615 9.5391 2.52211 9.51775 2.73626C9.49339 2.9793 9.85192 3.01359 10.0222 3.01359C10.2778 3.01359 10.5368 2.89929 10.4544 2.60392C10.4186 2.47579 10.3699 2.34254 10.2914 2.26193C10.4801 2.39288 10.6609 2.5349 10.8328 2.68724C10.8301 2.68994 10.8273 2.69235 10.8246 2.69536C10.6514 2.87583 10.4502 3.0187 10.3317 3.23827C10.248 3.39287 10.1539 3.46626 9.98456 3.50626C9.89132 3.52822 9.78484 3.53634 9.70664 3.59891C9.48887 3.77035 9.61279 4.18242 9.81913 4.30604C10.0799 4.46215 10.4667 4.38876 10.6634 4.16588C10.8171 3.99142 10.9077 3.68854 11.1841 3.68884C11.3058 3.68859 11.4227 3.73623 11.5095 3.82148C11.6238 3.93999 11.6013 4.05068 11.6256 4.19866C11.6686 4.46155 11.9005 4.31898 12.0416 4.18633C12.1444 4.36933 12.2372 4.5578 12.3195 4.7509C12.1643 4.97438 12.041 5.21801 11.6677 4.95753C11.4443 4.80143 11.3068 4.57494 11.0262 4.50456C10.781 4.4444 10.5299 4.50696 10.2877 4.54877C10.0125 4.5966 9.68619 4.61765 9.47744 4.82609C9.27562 5.02701 9.16884 5.29591 8.95408 5.49774C8.5387 5.88875 8.36335 6.31556 8.63225 6.8684C8.89092 7.39988 9.43203 7.68833 10.0158 7.65043C10.5894 7.61223 11.1853 7.27957 11.1687 8.11303C11.1627 8.4081 11.2244 8.61233 11.3149 8.88634C11.3988 9.139 11.3931 9.38383 11.4124 9.64461C11.4307 9.94998 11.4784 10.2529 11.5549 10.5491C11.0158 11.2432 10.3252 11.8049 9.53578 12.1914C8.74639 12.5778 7.87912 12.7787 7.00021 12.7787Z" fill="#828BA3"/>
</svg>
