<svg width="14" height="14" viewBox="0 0 14 14" fill="none" xmlns="http://www.w3.org/2000/svg">
<path d="M11.7643 2.2398C11.1398 1.60911 10.3968 1.10803 9.57805 0.765343C8.7593 0.422659 7.88091 0.245125 6.99334 0.24294C6.10577 0.240756 5.22652 0.413964 4.40609 0.752613C3.58566 1.09126 2.84023 1.58868 2.21263 2.21629C1.58502 2.8439 1.0876 3.58933 0.748951 4.40975C0.410302 5.23018 0.237094 6.10943 0.239278 6.997C0.241463 7.88457 0.418997 8.76296 0.761681 9.58171C1.10436 10.4005 1.60545 11.1434 2.23613 11.7679C2.86065 12.3986 3.60362 12.8997 4.42237 13.2424C5.24112 13.5851 6.11951 13.7626 7.00708 13.7648C7.89465 13.767 8.7739 13.5938 9.59433 13.2551C10.4148 12.9165 11.1602 12.4191 11.7878 11.7915C12.4154 11.1638 12.9128 10.4184 13.2515 9.59799C13.5901 8.77756 13.7633 7.89831 13.7611 7.01074C13.759 6.12317 13.5814 5.24478 13.2387 4.42603C12.8961 3.60728 12.395 2.86431 11.7643 2.2398ZM1.22521 7.00387C1.22499 6.49276 1.29276 5.98388 1.42673 5.49064C1.64751 5.96588 1.96814 6.37644 2.18621 6.86401C2.46804 7.49084 3.2248 7.31698 3.55897 7.86621C3.85554 8.35378 3.53882 8.97038 3.7608 9.4805C3.92201 9.85077 4.3022 9.93168 4.56448 10.2024C4.83248 10.4755 4.82676 10.8497 4.86767 11.2058C4.91383 11.6242 4.9887 12.039 5.09175 12.4471C5.09175 12.4501 5.09175 12.4534 5.09416 12.4564C2.84341 11.666 1.22521 9.52051 1.22521 7.00387ZM7.00021 12.7789C6.67769 12.7788 6.35575 12.7518 6.03771 12.6983C6.04102 12.6168 6.04252 12.5407 6.05064 12.4877C6.12373 12.0095 6.36315 11.5418 6.68619 11.1838C7.00532 10.8307 7.44266 10.5919 7.71216 10.1913C7.97624 9.80023 8.05535 9.27387 7.94647 8.81698C7.78615 8.14203 6.86907 7.91674 6.37458 7.55069C6.09035 7.34014 5.83739 7.0147 5.46412 6.98823C5.29207 6.9762 5.148 7.0132 4.97746 6.96928C4.82105 6.92868 4.69833 6.84446 4.5317 6.86641C4.22039 6.90732 4.02398 7.23998 3.68951 7.19487C3.37219 7.15246 3.04524 6.78099 2.97305 6.47871C2.88041 6.0901 3.18781 5.96407 3.51716 5.92948C3.65462 5.91504 3.80892 5.8994 3.94096 5.94993C4.11481 6.0143 4.19693 6.18454 4.35303 6.27057C4.64569 6.43118 4.70495 6.17462 4.66013 5.91474C4.59306 5.52553 4.51485 5.36702 4.86196 5.09902C5.10258 4.91434 5.30831 4.7808 5.26981 4.44904C5.24695 4.25413 5.14018 4.166 5.23974 3.972C5.31523 3.82431 5.52247 3.69107 5.65752 3.60294C6.00613 3.37555 7.1509 3.39239 6.68319 2.75594C6.54573 2.56915 6.29217 2.23529 6.05155 2.18957C5.75076 2.13272 5.61722 2.46839 5.40757 2.61638C5.19101 2.76947 4.76931 2.94332 4.55245 2.70661C4.26069 2.38808 4.74585 2.28371 4.85323 2.06113C4.90286 1.95736 4.85323 1.81329 4.76962 1.67764C4.8781 1.63192 4.98838 1.58951 5.10047 1.55041C5.17072 1.60229 5.25406 1.63354 5.3411 1.64064C5.54232 1.65387 5.73211 1.54499 5.90777 1.68215C6.10268 1.83254 6.24314 2.02263 6.50181 2.06955C6.75206 2.11497 7.01705 1.96909 7.07901 1.71283C7.11661 1.55702 7.07901 1.3925 7.04292 1.23158C8.16785 1.23805 9.26608 1.57495 10.2011 2.20039C10.141 2.17754 10.0691 2.18024 9.98035 2.22145C9.79778 2.30627 9.5391 2.52223 9.51775 2.73639C9.49339 2.97942 9.85192 3.01371 10.0222 3.01371C10.2778 3.01371 10.5368 2.89941 10.4544 2.60404C10.4186 2.47591 10.3699 2.34266 10.2914 2.26205C10.4801 2.393 10.6609 2.53502 10.8328 2.68736C10.8301 2.69007 10.8273 2.69247 10.8246 2.69548C10.6514 2.87595 10.4502 3.01882 10.3317 3.23839C10.248 3.39299 10.1539 3.46638 9.98456 3.50639C9.89132 3.52834 9.78484 3.53646 9.70664 3.59903C9.48887 3.77047 9.61279 4.18254 9.81913 4.30616C10.0799 4.46227 10.4667 4.38888 10.6634 4.166C10.8171 3.99155 10.9077 3.68866 11.1841 3.68896C11.3058 3.68871 11.4227 3.73636 11.5095 3.82161C11.6238 3.94011 11.6013 4.0508 11.6256 4.19878C11.6686 4.46167 11.9005 4.3191 12.0416 4.18645C12.1444 4.36945 12.2372 4.55792 12.3195 4.75102C12.1643 4.9745 12.041 5.21813 11.6677 4.95766C11.4443 4.80155 11.3068 4.57506 11.0262 4.50468C10.781 4.44452 10.5299 4.50709 10.2877 4.54889C10.0125 4.59672 9.68619 4.61777 9.47744 4.82621C9.27562 5.02714 9.16884 5.29603 8.95408 5.49786C8.5387 5.88887 8.36335 6.31568 8.63225 6.86852C8.89092 7.4 9.43203 7.68845 10.0158 7.65055C10.5894 7.61235 11.1853 7.27969 11.1687 8.11315C11.1627 8.40822 11.2244 8.61245 11.3149 8.88646C11.3988 9.13912 11.3931 9.38395 11.4124 9.64473C11.4307 9.9501 11.4784 10.253 11.5549 10.5492C11.0158 11.2433 10.3252 11.8051 9.53578 12.1915C8.74639 12.5779 7.87912 12.7788 7.00021 12.7789Z" fill="#949494"/>
</svg>
