<svg width="16" height="15" viewBox="0 0 16 15" fill="none" xmlns="http://www.w3.org/2000/svg">
<path d="M9.08094 5C8.45031 5 5.74281 5.06188 4 7.68594V5C4 3.34562 2.65438 2 1 2C0.447812 2 0 2.44781 0 3C0 3.55219 0.447812 4 1 4C1.55125 4 2 4.44875 2 5V13C2 14.1031 2.89687 15 4 15H9.5C9.77625 15 10 14.7762 10 14.5V14C10 13.4478 9.55219 13 9 13H8L12 10V14.5C12 14.7762 12.2238 15 12.5 15H13.5C13.7762 15 14 14.7762 14 14.5V8.05812C13.6784 8.14156 13.3472 8.2 13 8.2C11.0684 8.2 9.4525 6.82344 9.08094 5ZM14 2H12L10 0V4.2C10 5.85687 11.3431 7.2 13 7.2C14.6569 7.2 16 5.85687 16 4.2V0L14 2ZM11.75 4.5C11.4738 4.5 11.25 4.27625 11.25 4C11.25 3.72375 11.4738 3.5 11.75 3.5C12.0262 3.5 12.25 3.72375 12.25 4C12.25 4.27625 12.0262 4.5 11.75 4.5ZM14.25 4.5C13.9738 4.5 13.75 4.27625 13.75 4C13.75 3.72375 13.9738 3.5 14.25 3.5C14.5262 3.5 14.75 3.72375 14.75 4C14.75 4.27625 14.5262 4.5 14.25 4.5Z" fill="#828BA3"/>
</svg>
