<svg width="18" height="17" viewBox="0 0 18 17" fill="none" xmlns="http://www.w3.org/2000/svg">
    <path d="M10.2161 5.75C9.5066 5.75 6.46066 5.81961 4.5 8.77168V5.75C4.5 3.88883 2.98617 2.375 1.125 2.375C0.503789 2.375 0 2.87879 0 3.5C0 4.12121 0.503789 4.625 1.125 4.625C1.74516 4.625 2.25 5.12984 2.25 5.75V14.75C2.25 15.991 3.25898 17 4.5 17H10.6875C10.9983 17 11.25 16.7483 11.25 16.4375V15.875C11.25 15.2538 10.7462 14.75 10.125 14.75H9L13.5 11.375V16.4375C13.5 16.7483 13.7517 17 14.0625 17H15.1875C15.4983 17 15.75 16.7483 15.75 16.4375V9.19039C15.3882 9.28426 15.0156 9.35 14.625 9.35C12.452 9.35 10.6341 7.80137 10.2161 5.75ZM15.75 2.375H13.5L11.25 0.125V4.85C11.25 6.71398 12.761 8.225 14.625 8.225C16.489 8.225 18 6.71398 18 4.85V0.125L15.75 2.375ZM13.2188 5.1875C12.908 5.1875 12.6562 4.93578 12.6562 4.625C12.6562 4.31422 12.908 4.0625 13.2188 4.0625C13.5295 4.0625 13.7812 4.31422 13.7812 4.625C13.7812 4.93578 13.5295 5.1875 13.2188 5.1875ZM16.0312 5.1875C15.7205 5.1875 15.4688 4.93578 15.4688 4.625C15.4688 4.31422 15.7205 4.0625 16.0312 4.0625C16.342 4.0625 16.5938 4.31422 16.5938 4.625C16.5938 4.93578 16.342 5.1875 16.0312 5.1875Z" fill="#828BA3"/>
</svg>
