<svg width="11" height="15" viewBox="0 0 11 15" fill="none" xmlns="http://www.w3.org/2000/svg">
<path d="M10.5977 5.56641C10.5977 2.75566 8.31074 0.46875 5.5 0.46875C2.68926 0.46875 0.402344 2.75566 0.402344 5.56641C0.402344 8.15889 2.34766 10.3058 4.85547 10.6233V11.543H3.80078C3.62984 11.543 3.4659 11.6109 3.34503 11.7317C3.22416 11.8526 3.15625 12.0166 3.15625 12.1875C3.15625 12.3584 3.22416 12.5224 3.34503 12.6433C3.4659 12.7641 3.62984 12.832 3.80078 12.832H4.85547V13.8867C4.85547 14.0577 4.92337 14.2216 5.04425 14.3425C5.16512 14.4633 5.32906 14.5312 5.5 14.5312C5.67094 14.5312 5.83488 14.4633 5.95575 14.3425C6.07662 14.2216 6.14453 14.0577 6.14453 13.8867V12.832H7.19922C7.37016 12.832 7.5341 12.7641 7.65497 12.6433C7.77584 12.5224 7.84375 12.3584 7.84375 12.1875C7.84375 12.0166 7.77584 11.8526 7.65497 11.7317C7.5341 11.6109 7.37016 11.543 7.19922 11.543H6.14453V10.6233C8.65234 10.3058 10.5977 8.15889 10.5977 5.56641ZM1.69141 5.56641C1.69141 3.46641 3.4 1.75781 5.5 1.75781C7.6 1.75781 9.30859 3.46641 9.30859 5.56641C9.30859 7.66641 7.6 9.375 5.5 9.375C3.4 9.375 1.69141 7.66641 1.69141 5.56641Z" fill="#828BA3"/>
</svg>
