<svg width="26" height="26" viewBox="0 0 26 26" fill="none" xmlns="http://www.w3.org/2000/svg">
<path d="M21.6412 5.45588L21.6408 5.45549C21.0724 4.89833 20.4023 4.45557 19.6668 4.15127L19.6662 4.151C18.9034 3.83412 18.0852 3.67192 17.2592 3.67383L17.258 3.67383C16.0977 3.67383 14.9666 3.9915 13.984 4.5909L13.984 4.59091C13.7489 4.73431 13.526 4.89158 13.315 5.06273L13 5.31821L12.685 5.06273C12.474 4.89158 12.2511 4.73431 12.016 4.59091L12.016 4.5909C11.0334 3.9915 9.9023 3.67383 8.74199 3.67383C7.90558 3.67383 7.0974 3.83382 6.3338 4.151L6.33325 4.15123C5.59514 4.45682 4.93041 4.89603 4.35904 5.45564L4.35836 5.45631C3.79073 6.01015 3.33728 6.66998 3.02373 7.39842L21.6412 5.45588ZM21.6412 5.45588C22.2083 6.01057 22.6619 6.67052 22.9764 7.39877C23.3025 8.15653 23.4686 8.95961 23.4662 9.78666V9.78808C23.4662 10.5651 23.3075 11.3857 22.9838 12.2323L22.9833 12.2335C22.715 12.9404 22.3204 13.6836 21.8116 14.4432C21.006 15.6441 19.8893 16.9096 18.4881 18.2032C16.1606 20.3503 13.8578 21.8327 13.7686 21.8898L13.7685 21.8898L13.1678 22.2752C13.1677 22.2752 13.1675 22.2753 13.1674 22.2754C13.065 22.3405 12.9324 22.3405 12.83 22.2754C12.8299 22.2753 12.8298 22.2752 12.8297 22.2752L12.2289 21.8898L12.229 21.8898L12.221 21.8849L12.221 21.8849C12.2206 21.8846 12.2177 21.8828 12.2114 21.8788L12.1856 21.8623C12.1639 21.8483 12.1339 21.8288 12.096 21.8039C12.0204 21.7542 11.9142 21.6835 11.7817 21.5933C11.5167 21.4129 11.1472 21.1549 10.7075 20.8312C9.82746 20.1833 8.67034 19.2754 7.50953 18.2034L7.50948 18.2033M21.6412 5.45588L7.50948 18.2033M7.50948 18.2033C6.10826 16.9097 4.99148 15.6441 4.18591 14.4432L7.50948 18.2033ZM13 20.6883L12.7303 21.1093L13 21.2821L13.2697 21.1093L13 20.6883ZM13 20.6883C13.2697 21.1093 13.2699 21.1092 13.27 21.1091L13.2705 21.1088L13.2721 21.1078L13.2776 21.1042L13.2984 21.0907C13.3164 21.079 13.3427 21.0618 13.3768 21.0394C13.445 20.9944 13.5441 20.9283 13.6699 20.8427C13.9213 20.6714 14.2793 20.4218 14.7085 20.1064C15.5658 19.4763 16.7112 18.5808 17.8587 17.5213C19.0041 16.4637 20.1645 15.231 21.0417 13.9253C21.9147 12.6258 22.5391 11.2071 22.5391 9.78808C22.5391 6.91508 20.1651 4.60351 17.258 4.60351C15.5132 4.60351 13.9625 5.43465 13 6.71884C12.0375 5.43465 10.4868 4.60351 8.74199 4.60351C5.83488 4.60351 3.46094 6.91508 3.46094 9.78808C3.46094 11.2071 4.08528 12.6258 4.95826 13.9253C5.83552 15.231 6.99588 16.4637 8.14128 17.5213C9.28878 18.5808 10.4342 19.4763 11.2915 20.1064C11.7207 20.4218 12.0787 20.6714 12.3301 20.8427C12.4559 20.9283 12.555 20.9944 12.6232 21.0394C12.6573 21.0618 12.6836 21.079 12.7016 21.0907L12.7224 21.1042L12.7279 21.1078L12.7295 21.1088L12.73 21.1091C12.7301 21.1092 12.7303 21.1093 13 20.6883ZM2.53125 9.78808C2.53125 8.95995 2.69759 8.1563 3.02371 7.39846L4.18575 14.4429C3.67764 13.6844 3.2851 12.9408 3.01369 12.2323C2.68991 11.3857 2.53125 10.5651 2.53125 9.78808Z" stroke="url(#paint0_linear)"/>
<g filter="url(#filter0_d)">
<path d="M17.258 5.10352C15.402 5.10352 13.7922 6.13945 13 7.65273C12.2078 6.13945 10.598 5.10352 8.74199 5.10352C6.10137 5.10352 3.96094 7.20078 3.96094 9.78809C3.96094 14.8967 13 20.6883 13 20.6883C13 20.6883 22.0391 14.8967 22.0391 9.78809C22.0391 7.20078 19.8986 5.10352 17.258 5.10352Z" fill="white"/>
</g>
<defs>
<filter id="filter0_d" x="1.96094" y="4.10352" width="22.0781" height="19.5848" filterUnits="userSpaceOnUse" color-interpolation-filters="sRGB">
<feFlood flood-opacity="0" result="BackgroundImageFix"/>
<feColorMatrix in="SourceAlpha" type="matrix" values="0 0 0 0 0 0 0 0 0 0 0 0 0 0 0 0 0 0 127 0"/>
<feOffset dy="1"/>
<feGaussianBlur stdDeviation="1"/>
<feColorMatrix type="matrix" values="0 0 0 0 0 0 0 0 0 0 0 0 0 0 0 0 0 0 0.25 0"/>
<feBlend mode="normal" in2="BackgroundImageFix" result="effect1_dropShadow"/>
<feBlend mode="normal" in="SourceGraphic" in2="effect1_dropShadow" result="shape"/>
</filter>
<linearGradient id="paint0_linear" x1="2" y1="13" x2="24" y2="13" gradientUnits="userSpaceOnUse">
<stop stop-color="#FF7C30"/>
<stop offset="1" stop-color="#FF9C47"/>
</linearGradient>
</defs>
</svg>
