<svg width="6" height="11" viewBox="0 0 6 11" fill="none" xmlns="http://www.w3.org/2000/svg">
<path d="M5.11531 5.11546L5.11516 5.11529L1.64264 0.933565C1.64261 0.933529 1.64258 0.933492 1.64255 0.933455C1.64253 0.933434 1.64251 0.933412 1.64249 0.93339C1.54719 0.818509 1.41105 0.75 1.26367 0.75C1.1162 0.75 0.980002 0.818578 0.884693 0.933565C0.705102 1.15024 0.705102 1.48597 0.884693 1.70264L4.0322 5.5L0.884693 9.29736C0.705102 9.51403 0.705102 9.84976 0.884693 10.0664C0.978772 10.1799 1.1112 10.25 1.26367 10.25C1.41605 10.25 1.54842 10.18 1.64249 10.0666L5.11531 5.11546ZM5.11531 5.11546C5.2949 5.33213 5.2949 5.66787 5.11531 5.88454L5.11516 5.88471L1.64264 10.0664L5.11531 5.11546Z" fill="white" stroke="white" stroke-width="0.5"/>
</svg>
