<svg width="92" height="71" viewBox="0 0 92 71" fill="none" xmlns="http://www.w3.org/2000/svg">
<path d="M16.814 55.272C16.814 56.292 16.55 57.228 16.022 58.08C15.494 58.932 14.726 59.628 13.718 60.168C12.71 60.708 11.51 61.026 10.118 61.122L9.344 65.46C9.044 67.128 8.228 67.962 6.896 67.962C6.164 67.962 5.486 67.746 4.862 67.314C4.25 66.882 3.758 66.222 3.386 65.334C3.014 64.446 2.828 63.354 2.828 62.058C2.828 59.622 3.218 57.558 3.998 55.866C4.79 54.162 5.846 52.89 7.166 52.05C8.498 51.198 9.962 50.772 11.558 50.772C12.686 50.772 13.64 50.97 14.42 51.366C15.212 51.762 15.806 52.302 16.202 52.986C16.61 53.658 16.814 54.42 16.814 55.272ZM10.442 59.268C12.902 58.956 14.132 57.678 14.132 55.434C14.132 54.642 13.868 54 13.34 53.508C12.824 53.004 12.02 52.752 10.928 52.752C9.692 52.752 8.612 53.142 7.688 53.922C6.776 54.702 6.068 55.788 5.564 57.18C5.072 58.56 4.826 60.138 4.826 61.914C4.826 62.658 4.898 63.318 5.042 63.894C5.198 64.47 5.39 64.92 5.618 65.244C5.858 65.556 6.086 65.712 6.302 65.712C6.602 65.712 6.83 65.298 6.986 64.47L7.58 61.068C7.112 60.996 6.908 60.966 6.968 60.978C6.608 60.918 6.374 60.81 6.266 60.654C6.158 60.486 6.104 60.276 6.104 60.024C6.104 59.76 6.176 59.55 6.32 59.394C6.476 59.238 6.686 59.16 6.95 59.16C7.07 59.16 7.16 59.166 7.22 59.178C7.508 59.226 7.73 59.256 7.886 59.268C8.042 58.332 8.264 57.078 8.552 55.506C8.624 55.098 8.786 54.81 9.038 54.642C9.302 54.462 9.608 54.372 9.956 54.372C10.352 54.372 10.634 54.45 10.802 54.606C10.982 54.75 11.072 54.984 11.072 55.308C11.072 55.5 11.06 55.656 11.036 55.776L10.442 59.268ZM24.4799 61.986C24.6359 61.986 24.7559 62.058 24.8399 62.202C24.9359 62.346 24.9839 62.544 24.9839 62.796C24.9839 63.276 24.8699 63.648 24.6419 63.912C24.1979 64.452 23.5679 64.95 22.7519 65.406C21.9479 65.862 21.0839 66.09 20.1599 66.09C18.8999 66.09 17.9219 65.748 17.2259 65.064C16.5299 64.38 16.1819 63.444 16.1819 62.256C16.1819 61.428 16.3559 60.66 16.7039 59.952C17.0519 59.232 17.5319 58.662 18.1439 58.242C18.7679 57.822 19.4699 57.612 20.2499 57.612C20.9459 57.612 21.5039 57.822 21.9239 58.242C22.3439 58.65 22.5539 59.208 22.5539 59.916C22.5539 60.744 22.2539 61.458 21.6539 62.058C21.0659 62.646 20.0639 63.114 18.6479 63.462C18.9479 64.014 19.5179 64.29 20.3579 64.29C20.8979 64.29 21.5099 64.104 22.1939 63.732C22.8899 63.348 23.4899 62.85 23.9939 62.238C24.1379 62.07 24.2999 61.986 24.4799 61.986ZM19.9439 59.376C19.4999 59.376 19.1219 59.634 18.8099 60.15C18.5099 60.666 18.3599 61.29 18.3599 62.022V62.058C19.0679 61.89 19.6259 61.638 20.0339 61.302C20.4419 60.966 20.6459 60.576 20.6459 60.132C20.6459 59.904 20.5799 59.724 20.4479 59.592C20.3279 59.448 20.1599 59.376 19.9439 59.376ZM31.5463 61.986C31.7023 61.986 31.8223 62.058 31.9063 62.202C32.0023 62.346 32.0503 62.544 32.0503 62.796C32.0503 63.276 31.9363 63.648 31.7083 63.912C31.1923 64.548 30.6283 65.07 30.0163 65.478C29.4043 65.886 28.7023 66.09 27.9103 66.09C25.4623 66.09 24.2383 64.368 24.2383 60.924C24.2383 60.396 24.2563 59.862 24.2923 59.322H23.5903C23.2303 59.322 22.9843 59.256 22.8523 59.124C22.7323 58.992 22.6723 58.782 22.6723 58.494C22.6723 57.822 22.9423 57.486 23.4823 57.486H24.5083C24.7123 56.166 25.0243 54.96 25.4443 53.868C25.8643 52.776 26.3683 51.906 26.9563 51.258C27.5563 50.61 28.1983 50.286 28.8823 50.286C29.3863 50.286 29.7823 50.508 30.0703 50.952C30.3583 51.396 30.5023 51.954 30.5023 52.626C30.5023 54.486 29.7223 56.106 28.1623 57.486H30.1783C30.3703 57.486 30.5083 57.528 30.5923 57.612C30.6763 57.696 30.7183 57.852 30.7183 58.08C30.7183 58.908 30.0403 59.322 28.6843 59.322H26.4883C26.4643 59.922 26.4523 60.39 26.4523 60.726C26.4523 61.974 26.5963 62.85 26.8843 63.354C27.1843 63.858 27.6523 64.11 28.2883 64.11C28.8043 64.11 29.2603 63.954 29.6563 63.642C30.0523 63.33 30.5203 62.862 31.0603 62.238C31.2043 62.07 31.3663 61.986 31.5463 61.986ZM28.3963 52.014C28.2163 52.014 28.0123 52.242 27.7843 52.698C27.5683 53.142 27.3583 53.766 27.1543 54.57C26.9623 55.362 26.8003 56.244 26.6683 57.216C27.3763 56.604 27.9043 55.92 28.2523 55.164C28.6123 54.396 28.7923 53.7 28.7923 53.076C28.7923 52.368 28.6603 52.014 28.3963 52.014ZM33.9327 66.486C33.3087 66.486 32.8287 66.342 32.4927 66.054C32.1687 65.766 32.0067 65.442 32.0067 65.082C32.0067 64.77 32.1207 64.5 32.3487 64.272C32.5767 64.044 32.9127 63.93 33.3567 63.93C33.5127 63.93 33.6927 63.948 33.8967 63.984C34.1127 64.008 34.2747 64.026 34.3827 64.038C34.3707 63.726 34.2987 63.432 34.1667 63.156C34.0467 62.88 33.8907 62.616 33.6987 62.364C33.5067 62.1 33.3267 61.872 33.1587 61.68C32.7867 62.388 32.4147 62.976 32.0427 63.444C31.6827 63.912 31.2867 64.356 30.8547 64.776C30.6387 64.992 30.4107 65.1 30.1707 65.1C29.9787 65.1 29.8227 65.034 29.7027 64.902C29.5827 64.758 29.5227 64.584 29.5227 64.38C29.5227 64.14 29.6067 63.918 29.7747 63.714L30.0087 63.426C30.6687 62.61 31.1667 61.938 31.5027 61.41C31.7187 61.062 31.9347 60.648 32.1507 60.168C32.3787 59.688 32.6727 59.034 33.0327 58.206C33.2607 57.678 33.7347 57.414 34.4547 57.414C34.7907 57.414 35.0247 57.444 35.1567 57.504C35.2887 57.564 35.3547 57.66 35.3547 57.792C35.3547 57.864 35.3307 57.978 35.2827 58.134C35.2347 58.29 35.1687 58.446 35.0847 58.602C34.8687 59.034 34.7607 59.4 34.7607 59.7C34.7607 59.88 34.8207 60.078 34.9407 60.294C35.0727 60.51 35.2707 60.78 35.5347 61.104C35.9187 61.608 36.2067 62.04 36.3987 62.4C36.6027 62.748 36.7047 63.132 36.7047 63.552C36.7047 64.056 36.5847 64.536 36.3447 64.992C36.1167 65.436 35.7927 65.796 35.3727 66.072C34.9527 66.348 34.4727 66.486 33.9327 66.486ZM59.1004 61.986C59.2564 61.986 59.3764 62.058 59.4604 62.202C59.5564 62.346 59.6044 62.544 59.6044 62.796C59.6044 63.264 59.4904 63.636 59.2624 63.912C58.0744 65.364 56.8084 66.09 55.4644 66.09C54.3004 66.09 53.3704 65.64 52.6744 64.74C51.9784 63.84 51.6304 62.55 51.6304 60.87C51.6304 60.462 51.6484 60.054 51.6844 59.646C50.8924 59.79 50.0284 59.898 49.0924 59.97C48.4684 60.018 48.0424 60.048 47.8144 60.06C47.5744 61.284 47.2384 62.784 46.8064 64.56C46.5544 65.604 46.0744 66.126 45.3664 66.126C44.5984 66.126 44.2144 65.778 44.2144 65.082C44.2144 64.926 44.2444 64.71 44.3044 64.434C44.7124 62.79 45.0364 61.398 45.2764 60.258L44.4124 60.294C44.0164 60.294 43.7284 60.228 43.5484 60.096C43.3684 59.952 43.2784 59.724 43.2784 59.412C43.2784 59.016 43.3924 58.728 43.6204 58.548C43.8484 58.356 44.2264 58.248 44.7544 58.224L45.7084 58.188C46.0204 56.496 46.1764 55.206 46.1764 54.318C46.1764 53.754 46.0924 53.37 45.9244 53.166C45.7564 52.962 45.5344 52.86 45.2584 52.86C44.4184 52.86 43.4704 53.562 42.4144 54.966C42.2584 55.17 42.0844 55.272 41.8924 55.272C41.7244 55.272 41.5804 55.194 41.4604 55.038C41.3404 54.882 41.2804 54.684 41.2804 54.444C41.2804 54.072 41.4304 53.676 41.7304 53.256C42.2584 52.524 42.9244 51.924 43.7284 51.456C44.5324 50.976 45.3484 50.736 46.1764 50.736C46.9564 50.736 47.5564 51.006 47.9764 51.546C48.4084 52.074 48.6244 52.902 48.6244 54.03C48.6244 55.026 48.4804 56.376 48.1924 58.08L49.9564 57.99C50.7124 57.954 51.3604 57.894 51.9004 57.81C52.1164 56.49 52.4464 55.254 52.8904 54.102C53.3344 52.95 53.8864 52.014 54.5464 51.294C55.2064 50.574 55.9444 50.214 56.7604 50.214C57.3604 50.214 57.8344 50.454 58.1824 50.934C58.5304 51.402 58.7044 52.02 58.7044 52.788C58.7044 55.764 57.1864 57.828 54.1504 58.98C54.1144 59.46 54.0964 59.958 54.0964 60.474C54.0964 61.734 54.2524 62.628 54.5644 63.156C54.8764 63.684 55.3144 63.948 55.8784 63.948C56.3704 63.948 56.8204 63.822 57.2284 63.57C57.6364 63.306 58.0984 62.862 58.6144 62.238C58.7584 62.07 58.9204 61.986 59.1004 61.986ZM56.6704 51.78C56.4064 51.78 56.1244 52.02 55.8244 52.5C55.5364 52.98 55.2604 53.634 54.9964 54.462C54.7324 55.29 54.5224 56.196 54.3664 57.18C55.3264 56.784 56.0344 56.22 56.4904 55.488C56.9464 54.756 57.1744 53.814 57.1744 52.662C57.1744 52.386 57.1264 52.17 57.0304 52.014C56.9344 51.858 56.8144 51.78 56.6704 51.78ZM69.6651 60.474C69.8211 60.474 69.9411 60.552 70.0251 60.708C70.1091 60.864 70.1511 61.062 70.1511 61.302C70.1511 61.878 69.9771 62.22 69.6291 62.328C68.9091 62.58 68.1171 62.724 67.2531 62.76C67.0251 63.768 66.5751 64.578 65.9031 65.19C65.2311 65.79 64.4691 66.09 63.6171 66.09C62.8971 66.09 62.2791 65.916 61.7631 65.568C61.2591 65.22 60.8751 64.758 60.6111 64.182C60.3471 63.606 60.2151 62.982 60.2151 62.31C60.2151 61.398 60.3891 60.588 60.7371 59.88C61.0851 59.16 61.5651 58.602 62.1771 58.206C62.7891 57.798 63.4671 57.594 64.2111 57.594C65.1231 57.594 65.8551 57.912 66.4071 58.548C66.9711 59.172 67.3011 59.946 67.3971 60.87C67.9611 60.834 68.6331 60.714 69.4131 60.51C69.5091 60.486 69.5931 60.474 69.6651 60.474ZM63.7611 64.182C64.1451 64.182 64.4751 64.026 64.7511 63.714C65.0391 63.402 65.2311 62.952 65.3271 62.364C64.9551 62.112 64.6671 61.782 64.4631 61.374C64.2711 60.966 64.1751 60.534 64.1751 60.078C64.1751 59.886 64.1931 59.694 64.2291 59.502H64.1391C63.6591 59.502 63.2571 59.736 62.9331 60.204C62.6211 60.66 62.4651 61.308 62.4651 62.148C62.4651 62.808 62.5911 63.312 62.8431 63.66C63.1071 64.008 63.4131 64.182 63.7611 64.182ZM69.8842 66.09C69.4282 66.09 69.1042 65.85 68.9122 65.37C68.7322 64.89 68.6422 64.122 68.6422 63.066C68.6422 61.506 68.8642 60.024 69.3082 58.62C69.4162 58.272 69.5902 58.02 69.8302 57.864C70.0822 57.696 70.4302 57.612 70.8742 57.612C71.1142 57.612 71.2822 57.642 71.3782 57.702C71.4742 57.762 71.5222 57.876 71.5222 58.044C71.5222 58.236 71.4322 58.668 71.2522 59.34C71.1322 59.82 71.0362 60.24 70.9642 60.6C70.8922 60.948 70.8322 61.386 70.7842 61.914C71.1082 60.978 71.4922 60.186 71.9362 59.538C72.3922 58.89 72.8542 58.41 73.3222 58.098C73.8022 57.774 74.2522 57.612 74.6722 57.612C75.0922 57.612 75.3862 57.708 75.5542 57.9C75.7342 58.092 75.8242 58.386 75.8242 58.782C75.8242 59.166 75.7102 59.862 75.4822 60.87C75.3862 61.302 75.3202 61.626 75.2842 61.842C75.8842 60.366 76.5502 59.292 77.2822 58.62C78.0142 57.948 78.6982 57.612 79.3342 57.612C80.1142 57.612 80.5042 58.002 80.5042 58.782C80.5042 59.25 80.3722 60.096 80.1082 61.32C79.8802 62.364 79.7662 63.054 79.7662 63.39C79.7662 63.87 79.9402 64.11 80.2882 64.11C80.5282 64.11 80.8102 63.966 81.1342 63.678C81.4702 63.378 81.9142 62.898 82.4662 62.238C82.6102 62.07 82.7722 61.986 82.9522 61.986C83.1082 61.986 83.2282 62.058 83.3122 62.202C83.4082 62.346 83.4562 62.544 83.4562 62.796C83.4562 63.276 83.3422 63.648 83.1142 63.912C82.5982 64.548 82.0402 65.07 81.4402 65.478C80.8522 65.886 80.1802 66.09 79.4242 66.09C78.8122 66.09 78.3502 65.916 78.0382 65.568C77.7262 65.208 77.5702 64.692 77.5702 64.02C77.5702 63.684 77.6542 63.084 77.8222 62.22C77.9782 61.464 78.0562 60.942 78.0562 60.654C78.0562 60.462 77.9902 60.366 77.8582 60.366C77.7022 60.366 77.4802 60.57 77.1922 60.978C76.9042 61.374 76.6162 61.902 76.3282 62.562C76.0402 63.222 75.8062 63.918 75.6262 64.65C75.4942 65.226 75.3382 65.61 75.1582 65.802C74.9902 65.994 74.7142 66.09 74.3302 66.09C73.9342 66.09 73.6342 65.904 73.4302 65.532C73.2382 65.148 73.1422 64.686 73.1422 64.146C73.1422 63.69 73.2022 63.03 73.3222 62.166C73.4182 61.398 73.4662 60.894 73.4662 60.654C73.4662 60.462 73.4002 60.366 73.2682 60.366C73.0882 60.366 72.8602 60.582 72.5842 61.014C72.3082 61.446 72.0382 61.998 71.7742 62.67C71.5222 63.342 71.3182 64.002 71.1622 64.65C71.0302 65.214 70.8742 65.598 70.6942 65.802C70.5262 65.994 70.2562 66.09 69.8842 66.09ZM88.4447 62.526C88.6007 62.526 88.7207 62.598 88.8047 62.742C88.9007 62.886 88.9487 63.084 88.9487 63.336C88.9487 63.768 88.8467 64.14 88.6427 64.452C88.3067 64.968 87.8627 65.37 87.3107 65.658C86.7707 65.946 86.1227 66.09 85.3667 66.09C84.2147 66.09 83.3207 65.748 82.6847 65.064C82.0487 64.368 81.7307 63.432 81.7307 62.256C81.7307 61.428 81.9047 60.66 82.2527 59.952C82.6007 59.232 83.0807 58.662 83.6927 58.242C84.3167 57.822 85.0187 57.612 85.7987 57.612C86.4947 57.612 87.0527 57.822 87.4727 58.242C87.8927 58.65 88.1027 59.208 88.1027 59.916C88.1027 60.744 87.8027 61.458 87.2027 62.058C86.6147 62.646 85.6067 63.114 84.1787 63.462C84.4667 64.014 84.9527 64.29 85.6367 64.29C86.1287 64.29 86.5307 64.176 86.8427 63.948C87.1667 63.72 87.5387 63.336 87.9587 62.796C88.1027 62.616 88.2647 62.526 88.4447 62.526ZM85.4927 59.376C85.0487 59.376 84.6707 59.634 84.3587 60.15C84.0587 60.666 83.9087 61.29 83.9087 62.022V62.058C84.6167 61.89 85.1747 61.638 85.5827 61.302C85.9907 60.966 86.1947 60.576 86.1947 60.132C86.1947 59.904 86.1287 59.724 85.9967 59.592C85.8767 59.448 85.7087 59.376 85.4927 59.376Z" fill="#3D4E55"/>
<g clip-path="url(#clip0)">
<path d="M76.9678 43.6027C77.2498 43.8517 77.613 43.9891 77.9892 43.9891H86.9796C88.4021 43.9891 89.0673 42.2282 88.0002 41.2877L46.5532 4.75811C45.9699 4.24405 45.0953 4.24405 44.5121 4.75811L3.06506 41.2877C1.99791 42.2282 2.66315 43.9891 4.08561 43.9891H13.076C13.4522 43.9891 13.8154 43.8517 14.0974 43.6027L44.5112 16.7549C45.0947 16.2397 45.9705 16.2397 46.5541 16.7549L76.9678 43.6027Z" fill="url(#paint0_linear)"/>
<path d="M11.11 10.8284C11.0352 9.81515 11.9449 9.00845 12.9419 9.20382L24.9729 11.5612C26.2241 11.8063 26.6525 13.3787 25.6986 14.2247L14.5697 24.0938C13.6159 24.9397 12.106 24.3264 12.0121 23.055L11.11 10.8284Z" fill="url(#paint1_linear)"/>
<path d="M79.3636 9.47012C80.3606 9.27472 81.2703 10.0814 81.1956 11.0947L80.2936 23.3211C80.1998 24.5926 78.69 25.2059 77.736 24.36L66.6072 14.4914C65.6533 13.6455 66.0817 12.0732 67.3328 11.828L79.3636 9.47012Z" fill="url(#paint2_linear)"/>
<path d="M47.3891 44.5024C46.6937 45.4268 45.3063 45.4268 44.6109 44.5024L39.4336 37.6206C38.5718 36.4749 39.3891 34.8372 40.8227 34.8372L51.1773 34.8373C52.6109 34.8373 53.4282 36.4749 52.5664 37.6206L47.3891 44.5024Z" fill="#3D4E55"/>
</g>
<defs>
<linearGradient id="paint0_linear" x1="6.17964e-07" y1="44" x2="91" y2="4" gradientUnits="userSpaceOnUse">
<stop stop-color="#FF7C30"/>
<stop offset="1" stop-color="#FF9C47"/>
</linearGradient>
<linearGradient id="paint1_linear" x1="1.99975" y1="43" x2="87.4998" y2="6" gradientUnits="userSpaceOnUse">
<stop offset="0.000177003" stop-color="#FF7C30"/>
<stop offset="1" stop-color="#FF9C47"/>
</linearGradient>
<linearGradient id="paint2_linear" x1="2" y1="44.5" x2="81" y2="10.5" gradientUnits="userSpaceOnUse">
<stop stop-color="#FF7C30"/>
<stop offset="1" stop-color="#FF9C47"/>
</linearGradient>
<clipPath id="clip0">
<rect width="91" height="50" fill="white"/>
</clipPath>
</defs>
</svg>
