<svg width="18" height="21" viewBox="0 0 18 21" fill="none" xmlns="http://www.w3.org/2000/svg">
<path fill-rule="evenodd" clip-rule="evenodd" d="M17.7334 4.86155C17.7334 5.20294 17.5978 5.53034 17.3564 5.77173C17.115 6.01312 16.7876 6.14874 16.4462 6.14874H15.8026V17.7334C15.8026 18.4162 15.5314 19.071 15.0486 19.5537C14.5658 20.0365 13.911 20.3078 13.2283 20.3078H5.50515C4.82238 20.3078 4.16758 20.0365 3.68479 19.5537C3.202 19.071 2.93078 18.4162 2.93078 17.7334V6.14874H2.28718C1.9458 6.14874 1.6184 6.01312 1.37701 5.77173C1.13561 5.53034 1 5.20294 1 4.86155V3.57437C1 3.23299 1.13561 2.90559 1.37701 2.66419C1.6184 2.4228 1.9458 2.28718 2.28718 2.28718H6.79233C6.79233 1.9458 6.92794 1.6184 7.16934 1.37701C7.41073 1.13561 7.73813 1 8.07951 1H10.6539C10.9953 1 11.3227 1.13561 11.5641 1.37701C11.8055 1.6184 11.9411 1.9458 11.9411 2.28718H16.4462C16.7876 2.28718 17.115 2.4228 17.3564 2.66419C17.5978 2.90559 17.7334 3.23299 17.7334 3.57437V4.86155ZM4.36985 6.14874L4.21796 6.22468V17.7334C4.21796 18.0748 4.35358 18.4022 4.59497 18.6436C4.83636 18.885 5.16376 19.0206 5.50515 19.0206H13.2283C13.5696 19.0206 13.897 18.885 14.1384 18.6436C14.3798 18.4022 14.5154 18.0748 14.5154 17.7334V6.22468L14.3635 6.14874H4.36985ZM2.28718 4.86155V3.57437H16.4462V4.86155H2.28718Z" fill="white" stroke="white" stroke-width="0.5"/>
</svg>
